<svg width="522" height="127" viewBox="0 0 522 127" fill="none" xmlns="http://www.w3.org/2000/svg">
<path d="M86.5 126.044C121.294 126.061 149.514 97.8692 149.532 63.0753C149.549 28.2814 121.357 0.0611133 86.5634 0.0435855L23.0635 0.0115967L0.0422974 42L86.5423 42.0436C109.738 42.0553 128.533 60.8688 128.521 84.0647C128.509 107.261 109.696 126.055 86.5 126.044Z" fill="#0075F2"/>
<path d="M86.5 126.044C109.696 126.055 128.509 107.261 128.521 84.0647C128.533 60.8688 109.738 42.0553 86.5423 42.0436L26.5423 42.0134L3.52114 84.0018L86.5211 84.0436C98.1191 84.0494 107.516 93.4562 107.511 105.054C107.505 116.652 98.0979 126.049 86.5 126.044Z" fill="#228DFF"/>
<path d="M86.5 126.044C98.0979 126.049 107.505 116.652 107.511 105.054C107.516 93.4562 98.1191 84.0494 86.5211 84.0436L28.0211 84.0141L6.99998 126.004L86.5 126.044Z" fill="#3A99FF"/>
<path d="M189.592 109V19.4H226.072C235.629 19.4 243.992 21.32 251.16 25.16C258.413 28.9147 264.045 34.1627 268.056 40.904C272.067 47.6453 274.072 55.4107 274.072 64.2C274.072 72.9893 272.067 80.7547 268.056 87.496C264.045 94.2373 258.413 99.528 251.16 103.368C243.992 107.123 235.629 109 226.072 109H189.592ZM199.064 100.808H225.56C233.496 100.808 240.365 99.272 246.168 96.2C252.056 93.0427 256.621 88.7333 259.864 83.272C263.107 77.7253 264.728 71.368 264.728 64.2C264.728 56.9467 263.107 50.5893 259.864 45.128C256.621 39.6667 252.056 35.4 246.168 32.328C240.365 29.1707 233.496 27.592 225.56 27.592H199.064V100.808Z" fill="white"/>
<path d="M303.067 109.768C298.032 109.768 293.296 108.659 288.859 106.44C284.507 104.221 281.008 101.064 278.363 96.968L283.867 90.568C286.342 94.152 289.2 96.8827 292.443 98.76C295.686 100.637 299.27 101.576 303.195 101.576C314.288 101.576 319.835 95.0053 319.835 81.864V27.592H287.067V19.4H329.179V81.48C329.179 90.952 326.96 98.0347 322.523 102.728C318.171 107.421 311.686 109.768 303.067 109.768Z" fill="white"/>
<path d="M357.592 109V19.4H394.072C403.629 19.4 411.992 21.32 419.16 25.16C426.413 28.9147 432.045 34.1627 436.056 40.904C440.067 47.6453 442.072 55.4107 442.072 64.2C442.072 72.9893 440.067 80.7547 436.056 87.496C432.045 94.2373 426.413 99.528 419.16 103.368C411.992 107.123 403.629 109 394.072 109H357.592ZM367.064 100.808H393.56C401.496 100.808 408.365 99.272 414.168 96.2C420.056 93.0427 424.621 88.7333 427.864 83.272C431.107 77.7253 432.728 71.368 432.728 64.2C432.728 56.9467 431.107 50.5893 427.864 45.128C424.621 39.6667 420.056 35.4 414.168 32.328C408.365 29.1707 401.496 27.592 393.56 27.592H367.064V100.808Z" fill="white"/>
<path d="M488.046 109.768C481.39 109.768 474.99 108.701 468.846 106.568C462.787 104.349 458.094 101.533 454.766 98.12L458.478 90.824C461.635 93.896 465.859 96.4987 471.15 98.632C476.526 100.68 482.158 101.704 488.046 101.704C493.678 101.704 498.243 101.021 501.742 99.656C505.326 98.2053 507.929 96.2853 509.55 93.896C511.257 91.5067 512.11 88.8613 512.11 85.96C512.11 82.4613 511.086 79.6453 509.038 77.512C507.075 75.3787 504.473 73.7147 501.23 72.52C497.987 71.24 494.403 70.1307 490.478 69.192C486.553 68.2533 482.627 67.272 478.702 66.248C474.777 65.1387 471.15 63.688 467.822 61.896C464.579 60.104 461.934 57.7573 459.886 54.856C457.923 51.8693 456.942 47.9867 456.942 43.208C456.942 38.7707 458.094 34.7173 460.398 31.048C462.787 27.2933 466.414 24.3067 471.278 22.088C476.142 19.784 482.371 18.632 489.966 18.632C495.001 18.632 499.993 19.3573 504.942 20.808C509.891 22.1733 514.158 24.0933 517.742 26.568L514.542 34.12C510.702 31.56 506.606 29.6827 502.254 28.488C497.987 27.2933 493.849 26.696 489.838 26.696C484.462 26.696 480.025 27.4213 476.526 28.872C473.027 30.3227 470.425 32.2853 468.718 34.76C467.097 37.1493 466.286 39.88 466.286 42.952C466.286 46.4507 467.267 49.2667 469.23 51.4C471.278 53.5333 473.923 55.1973 477.166 56.392C480.494 57.5867 484.121 58.6533 488.046 59.592C491.971 60.5307 495.854 61.5547 499.694 62.664C503.619 63.7733 507.203 65.224 510.446 67.016C513.774 68.7227 516.419 71.0267 518.382 73.928C520.43 76.8293 521.454 80.6267 521.454 85.32C521.454 89.672 520.259 93.7253 517.87 97.48C515.481 101.149 511.811 104.136 506.862 106.44C501.998 108.659 495.726 109.768 488.046 109.768Z" fill="white"/>
</svg>
